<svg width="126" height="71" viewBox="0 0 126 71" fill="none" xmlns="http://www.w3.org/2000/svg">
<path d="M30.75 31.1875C30.6771 32.0833 30.5729 32.8698 30.4375 33.5469C30.3021 34.2135 30.1927 34.6979 30.1094 35H16.7812V34.3281C17.4896 34.1823 18.0417 34.0208 18.4375 33.8438C18.8438 33.6667 19.0469 33.5104 19.0469 33.375V16.9531C19.0469 16.8281 18.8542 16.6719 18.4688 16.4844C18.0938 16.2969 17.5312 16.1302 16.7812 15.9844V15.3125H23.8125V15.9844C23.1146 16.1302 22.5625 16.2917 22.1562 16.4688C21.75 16.6458 21.5469 16.8073 21.5469 16.9531V32.4375C21.5469 32.8021 21.7448 33.0885 22.1406 33.2969C22.5469 33.4948 23.3177 33.5938 24.4531 33.5938H26.6875C27.3333 33.5938 27.849 33.5417 28.2344 33.4375C28.6198 33.3229 28.9479 33.0781 29.2188 32.7031C29.5 32.3177 29.7865 31.7188 30.0781 30.9062L30.75 31.1875ZM45.7131 33.7188C44.9527 34.2188 44.2548 34.6354 43.6194 34.9688C42.9944 35.3021 42.5517 35.4688 42.2913 35.4688C41.9267 35.4688 41.6298 35.2292 41.4006 34.75C41.1715 34.2604 41.0256 33.4792 40.9631 32.4062C40.0985 33.2708 39.3277 33.9219 38.6506 34.3594C37.984 34.7969 37.385 35.0885 36.8538 35.2344C36.3225 35.3906 35.8329 35.4688 35.385 35.4688C34.7392 35.4688 34.1298 35.3385 33.5569 35.0781C32.9944 34.8177 32.536 34.3385 32.1819 33.6406C31.8381 32.9427 31.6663 31.9427 31.6663 30.6406V23.8906C31.6663 23.224 31.6298 22.75 31.5569 22.4688C31.4944 22.1771 31.3225 21.9844 31.0413 21.8906C30.76 21.7969 30.2965 21.7188 29.6506 21.6562V21.0312C30.4006 20.9375 31.0673 20.8125 31.6506 20.6562C32.2444 20.4896 32.885 20.2708 33.5725 20L34.01 20.6094V29.7812C34.01 31.2396 34.2183 32.2396 34.635 32.7812C35.0621 33.3229 35.6506 33.5938 36.4006 33.5938C37.0777 33.5938 37.7756 33.3906 38.4944 32.9844C39.2235 32.5781 40.0465 31.8854 40.9631 30.9062V23.8906C40.9631 23.2656 40.911 22.8021 40.8069 22.5C40.7131 22.1875 40.51 21.9792 40.1975 21.875C39.8954 21.7604 39.4215 21.6875 38.7756 21.6562V21.0312C39.5256 20.9375 40.2444 20.7917 40.9319 20.5938C41.6298 20.3958 42.2652 20.1979 42.8381 20L43.3069 20.6094V31.0312C43.3069 31.6667 43.3329 32.1927 43.385 32.6094C43.4371 33.0156 43.5308 33.2708 43.6663 33.375C43.7808 33.4583 43.9892 33.4792 44.2913 33.4375C44.6038 33.3854 45.0256 33.2448 45.5569 33.0156L45.7131 33.7188ZM62.27 35V34.3281C63.7179 33.9531 64.4419 33.6354 64.4419 33.375V25.1094C64.4419 23.8281 64.3013 22.9688 64.02 22.5312C63.7492 22.0938 63.3013 21.875 62.6763 21.875C61.9888 21.875 61.2283 22.2448 60.395 22.9844C59.5617 23.724 58.7492 24.7448 57.9575 26.0469V33.375C57.9575 33.5104 58.119 33.651 58.4419 33.7969C58.7648 33.9427 59.3377 34.1198 60.1606 34.3281V35H53.4419V34.3281C54.8898 33.9531 55.6138 33.6354 55.6138 33.375V25.1094C55.6138 23.8281 55.4783 22.9688 55.2075 22.5312C54.9471 22.0938 54.494 21.875 53.8481 21.875C53.1502 21.875 52.4106 22.2448 51.6294 22.9844C50.8481 23.7135 50.0148 24.7344 49.1294 26.0469V33.375C49.1294 33.5312 49.3273 33.6927 49.7231 33.8594C50.119 34.026 50.6502 34.1823 51.3169 34.3281V35H44.5981V34.3281C45.2856 34.151 45.8221 33.9896 46.2075 33.8438C46.5929 33.6979 46.7856 33.5417 46.7856 33.375V23.8906C46.7856 23.3385 46.744 22.9375 46.6606 22.6875C46.5773 22.4271 46.3794 22.2448 46.0669 22.1406C45.7648 22.0365 45.2752 21.9479 44.5981 21.875V21.25C45.3898 21.125 46.0721 20.9531 46.645 20.7344C47.2179 20.5156 47.7856 20.2708 48.3481 20L48.895 20.5469L49.0669 24.125C49.994 22.7396 50.9419 21.7083 51.9106 21.0312C52.8794 20.3438 53.7388 20 54.4888 20C55.4783 20 56.3013 20.2656 56.9575 20.7969C57.6242 21.3177 57.9575 22.276 57.9575 23.6719V24C58.8325 22.6979 59.7544 21.7083 60.7231 21.0312C61.6919 20.3438 62.5565 20 63.3169 20C64.3065 20 65.1294 20.276 65.7856 20.8281C66.4523 21.3802 66.7856 22.2448 66.7856 23.4219V33.375C66.7856 33.5104 66.9471 33.651 67.27 33.7969C67.5929 33.9427 68.1658 34.1198 68.9888 34.3281V35H62.27ZM73.3112 15.2969C73.3112 15.8802 73.1394 16.3854 72.7956 16.8125C72.4519 17.2292 72.0196 17.4375 71.4987 17.4375C70.6237 17.4375 70.1862 16.9375 70.1862 15.9375C70.1862 15.3438 70.3633 14.8438 70.7175 14.4375C71.0717 14.0208 71.4935 13.8125 71.9831 13.8125C72.8685 13.8125 73.3112 14.3073 73.3112 15.2969ZM68.3112 35V34.3281C69.7696 34.0365 70.4987 33.7188 70.4987 33.375V24.5312C70.4987 23.8125 70.4675 23.276 70.405 22.9219C70.3425 22.5677 70.1602 22.3229 69.8581 22.1875C69.556 22.0417 69.0404 21.9375 68.3112 21.875V21.25C68.9675 21.125 69.6654 20.9531 70.405 20.7344C71.1446 20.5052 71.78 20.2604 72.3112 20H72.8425V33.375C72.8425 33.5 73.0144 33.6562 73.3581 33.8438C73.7123 34.0208 74.2696 34.1823 75.03 34.3281V35H68.3112ZM84.1338 35V34.3281C85.5921 33.9531 86.3213 33.6354 86.3213 33.375V25.1094C86.3213 23.8385 86.1702 23.0104 85.8681 22.625C85.5765 22.2292 85.0608 22.0312 84.3213 22.0312C83.6858 22.0312 82.8994 22.3594 81.9619 23.0156C81.0348 23.6719 80.066 24.8073 79.0556 26.4219V33.375C79.0556 33.5312 79.2535 33.6927 79.6494 33.8594C80.0452 34.026 80.5765 34.1823 81.2431 34.3281V35H74.5244V34.3281C75.2119 34.151 75.7483 33.9896 76.1338 33.8438C76.5192 33.6979 76.7119 33.5417 76.7119 33.375V23.8906C76.7119 23.349 76.6754 22.9479 76.6025 22.6875C76.5296 22.4271 76.3421 22.2448 76.04 22.1406C75.7379 22.0365 75.2327 21.9479 74.5244 21.875V21.25C75.2327 21.1354 75.889 20.974 76.4931 20.7656C77.1077 20.5469 77.7015 20.2917 78.2744 20L78.8213 20.5469L78.9931 24.4375C79.6077 23.5104 80.29 22.7188 81.04 22.0625C81.8004 21.3958 82.5504 20.8854 83.29 20.5312C84.0296 20.1771 84.6702 20 85.2119 20C86.1077 20 86.9046 20.276 87.6025 20.8281C88.3108 21.3802 88.665 22.2448 88.665 23.4219V33.375C88.665 33.5104 88.8213 33.651 89.1338 33.7969C89.4567 33.9427 90.0296 34.1198 90.8525 34.3281V35H84.1338ZM103.55 33.7188C102.665 34.3229 101.93 34.7656 101.347 35.0469C100.774 35.3281 100.342 35.4688 100.05 35.4688C99.6854 35.4688 99.3885 35.1979 99.1594 34.6562C98.9302 34.1042 98.8156 33.3646 98.8156 32.4375V24.0312C98.8156 23.3229 98.6333 22.7292 98.2688 22.25C97.9042 21.7604 97.2115 21.5312 96.1906 21.5625C95.524 21.5729 94.9146 21.776 94.3625 22.1719C93.8208 22.5573 93.5813 23.0625 93.6438 23.6875C93.6646 23.8125 93.4875 23.9531 93.1125 24.1094C92.7375 24.2656 92.3313 24.3958 91.8938 24.5C91.4667 24.5938 91.1646 24.6198 90.9875 24.5781L90.7688 23.9688C91.0917 23.2708 91.6229 22.625 92.3625 22.0312C93.1021 21.4271 93.9354 20.9375 94.8625 20.5625C95.8 20.1875 96.7063 20 97.5813 20C98.7271 20 99.6073 20.3021 100.222 20.9062C100.847 21.5 101.159 22.3333 101.159 23.4062V32.2188C101.159 33.0312 101.368 33.4375 101.784 33.4375C101.93 33.4375 102.118 33.4115 102.347 33.3594C102.576 33.2969 102.899 33.1823 103.316 33.0156L103.55 33.7188ZM98.9719 27.375C97.774 27.5625 96.8417 27.75 96.175 27.9375C95.5083 28.125 95.0031 28.3229 94.6594 28.5312C94.3156 28.7292 94.0292 28.9479 93.8 29.1875C93.5396 29.4688 93.3208 29.7917 93.1438 30.1562C92.9771 30.5104 92.8938 30.9323 92.8938 31.4219C92.8938 31.974 92.9927 32.3958 93.1906 32.6875C93.399 32.9792 93.6385 33.1771 93.9094 33.2812C94.1802 33.3854 94.4042 33.4375 94.5813 33.4375C95.2271 33.4375 95.9146 33.2656 96.6438 32.9219C97.3729 32.5781 98.149 32.0417 98.9719 31.3125L99.0969 32.4688C98.1177 33.5208 97.1438 34.2865 96.175 34.7656C95.2063 35.2344 94.3677 35.4688 93.6594 35.4688C93.1594 35.4688 92.6542 35.3542 92.1438 35.125C91.6333 34.9062 91.201 34.5469 90.8469 34.0469C90.5031 33.5469 90.3313 32.8958 90.3313 32.0938C90.3313 31.2917 90.4667 30.6302 90.7375 30.1094C91.0188 29.5781 91.3521 29.1198 91.7375 28.7344C92.0813 28.3906 92.4979 28.0729 92.9875 27.7812C93.4771 27.4896 94.1854 27.2135 95.1125 26.9531C96.05 26.6927 97.3365 26.4427 98.9719 26.2031V27.375Z" fill="black"/>
<path d="M17.6406 53.4375C17.6406 55.2083 16.9219 56.6146 15.4844 57.6562C14.0469 58.6979 12.0729 59.2188 9.5625 59.2188C8.86458 59.2188 8.0625 59.2031 7.15625 59.1719C6.25 59.151 5.33854 59.125 4.42188 59.0938C3.50521 59.0625 2.67188 59.0312 1.92188 59L6.5625 57.1094C6.88542 57.2865 7.25 57.4062 7.65625 57.4688C8.07292 57.5208 8.51562 57.5469 8.98438 57.5469C10.4844 57.5469 11.6198 57.2031 12.3906 56.5156C13.1615 55.8281 13.5469 54.901 13.5469 53.7344C13.5469 52.9635 13.4062 52.2188 13.125 51.5C12.8438 50.7812 12.3594 50.1875 11.6719 49.7188C10.9844 49.25 10.0365 49.0156 8.82812 49.0156C8.14062 49.0156 7.57292 49.0521 7.125 49.125C6.67708 49.1979 6.26042 49.2812 5.875 49.375L5.71875 47.4375H7.01562C8.40104 47.4375 9.44792 47.2604 10.1562 46.9062C10.8646 46.5521 11.3385 46.099 11.5781 45.5469C11.8281 44.9948 11.9531 44.4219 11.9531 43.8281C11.9531 42.7865 11.6198 41.974 10.9531 41.3906C10.2865 40.7969 9.0625 40.5 7.28125 40.5C6.72917 40.5 6.04688 40.5312 5.23438 40.5938C4.42188 40.6458 3.60417 40.7188 2.78125 40.8125C1.95833 40.8958 1.25521 40.9896 0.671875 41.0938L0.46875 39.7812C1.08333 39.625 1.83854 39.4792 2.73438 39.3438C3.64062 39.1979 4.57812 39.0781 5.54688 38.9844C6.52604 38.8906 7.43229 38.8438 8.26562 38.8438C10.651 38.8438 12.5208 39.2188 13.875 39.9688C15.2292 40.7188 15.9062 41.75 15.9062 43.0625C15.9062 44.1771 15.6042 45.1406 15 45.9531C14.3958 46.7552 13.5104 47.3385 12.3438 47.7031C13.3854 47.8698 14.3021 48.224 15.0938 48.7656C15.8958 49.3073 16.5208 49.9792 16.9688 50.7812C17.4167 51.5833 17.6406 52.4688 17.6406 53.4375ZM0.671875 59V57.8594C2.09896 57.5677 2.8125 57.25 2.8125 56.9062V40.0938L6.71875 39.7656V57.0156C6.71875 57.1406 6.84896 57.2969 7.10938 57.4844C7.36979 57.6719 7.88021 57.8333 8.64062 57.9688V59H0.671875ZM32.7913 51.4219C32.7913 52.4635 32.5881 53.4635 32.1819 54.4219C31.7756 55.3802 31.2183 56.2396 30.51 57C29.8017 57.7604 28.984 58.3646 28.0569 58.8125C27.1298 59.25 26.1506 59.4688 25.1194 59.4688C23.6819 59.4688 22.4319 59.1458 21.3694 58.5C20.3069 57.8542 19.484 56.974 18.9006 55.8594C18.3173 54.7448 18.0256 53.4792 18.0256 52.0625C18.0256 51.0312 18.2131 50.0365 18.5881 49.0781C18.9631 48.1094 19.4944 47.2448 20.1819 46.4844C20.8694 45.7135 21.6819 45.1094 22.6194 44.6719C23.5673 44.224 24.6038 44 25.7288 44C27.1454 44 28.385 44.3229 29.4475 44.9688C30.51 45.6146 31.3329 46.4948 31.9163 47.6094C32.4996 48.724 32.7913 49.9948 32.7913 51.4219ZM28.8538 52.125C28.8538 51.0208 28.7027 50.0052 28.4006 49.0781C28.0985 48.1406 27.6767 47.3854 27.135 46.8125C26.6038 46.2396 25.984 45.9531 25.2756 45.9531C24.411 45.9531 23.7392 46.2031 23.26 46.7031C22.7808 47.1927 22.4475 47.8646 22.26 48.7188C22.0725 49.5729 21.9788 50.5365 21.9788 51.6094C21.9788 52.7031 22.1402 53.6979 22.4631 54.5938C22.7965 55.4896 23.234 56.2031 23.7756 56.7344C24.3173 57.2552 24.911 57.5156 25.5569 57.5156C26.7965 57.5156 27.6558 57.0469 28.135 56.1094C28.6142 55.1719 28.8538 53.8438 28.8538 52.125ZM43.0825 56.5781C41.7075 57.5781 40.5356 58.3125 39.5669 58.7812C38.5981 59.2396 37.8429 59.4688 37.3013 59.4688C36.4054 59.4688 35.6294 59.1198 34.9731 58.4219C34.3273 57.724 34.0044 56.6458 34.0044 55.1875V46.4219H32.1138L31.6606 45.8594L32.8794 44.4688H34.0044V41.2031L37.1606 38.875L37.7544 39.3906V44.4688H42.52L43.0825 45.0312C42.8846 45.3854 42.6242 45.7604 42.3013 46.1562C41.9783 46.5417 41.7127 46.8125 41.5044 46.9688C41.2544 46.8438 40.8794 46.724 40.3794 46.6094C39.8794 46.4844 39.3533 46.4219 38.8013 46.4219H37.7544V53.7344C37.7544 54.8073 37.8742 55.5573 38.1138 55.9844C38.3638 56.401 38.6867 56.6094 39.0825 56.6094C39.4471 56.6094 39.869 56.5312 40.3481 56.375C40.8377 56.2188 41.52 55.9062 42.395 55.4375L43.0825 56.5781ZM57.0612 57.25C56.4779 57.6562 55.8737 58.026 55.2487 58.3594C54.6237 58.6927 54.056 58.9583 53.5456 59.1562C53.0352 59.3646 52.6498 59.4688 52.3894 59.4688C51.9623 59.4688 51.6081 59.1979 51.3269 58.6562C51.056 58.1042 50.9206 57.3646 50.9206 56.4375V48.2656C50.9206 47.6198 50.7748 47.0833 50.4831 46.6562C50.2019 46.2292 49.6706 46.0208 48.8894 46.0312C48.3894 46.0312 47.9206 46.2083 47.4831 46.5625C47.0456 46.9167 46.8581 47.4062 46.9206 48.0312C46.931 48.1354 46.754 48.2656 46.3894 48.4219C46.0352 48.5677 45.6029 48.7135 45.0925 48.8594C44.5925 48.9948 44.1237 49.1094 43.6862 49.2031C43.2592 49.2865 42.9831 49.3125 42.8581 49.2812L42.53 48.4375C42.8633 47.6146 43.4415 46.8698 44.2644 46.2031C45.0873 45.526 46.0456 44.9896 47.1394 44.5938C48.2331 44.1979 49.3581 44 50.5144 44C51.9415 44 52.9883 44.3594 53.655 45.0781C54.3321 45.7969 54.6706 46.6875 54.6706 47.75V55.2812C54.6706 56.0938 54.879 56.5 55.2956 56.5C55.4415 56.5 55.6081 56.474 55.7956 56.4219C55.9935 56.3594 56.3008 56.2448 56.7175 56.0781L57.0612 57.25ZM51.0769 51.6094C49.7644 51.8177 48.8373 52.026 48.2956 52.2344C47.7644 52.4323 47.3581 52.6719 47.0769 52.9531C46.806 53.224 46.5873 53.5156 46.4206 53.8281C46.254 54.1406 46.1706 54.5156 46.1706 54.9531C46.1706 55.6615 46.3425 56.1354 46.6862 56.375C47.0404 56.6146 47.3529 56.7344 47.6237 56.7344C48.03 56.7344 48.4987 56.6198 49.03 56.3906C49.5717 56.1615 50.254 55.6823 51.0769 54.9531L51.2019 56.7031C50.2227 57.7552 49.2487 58.4792 48.28 58.875C47.3112 59.2708 46.4727 59.4688 45.7644 59.4688C45.1915 59.4688 44.629 59.3333 44.0769 59.0625C43.5352 58.8021 43.0873 58.4062 42.7331 57.875C42.379 57.3333 42.2019 56.6615 42.2019 55.8594C42.2019 55.151 42.3321 54.5521 42.5925 54.0625C42.8529 53.5625 43.1706 53.1198 43.5456 52.7344C43.8894 52.3906 44.3165 52.0677 44.8269 51.7656C45.3373 51.4635 46.0769 51.1719 47.0456 50.8906C48.0144 50.6094 49.3581 50.3385 51.0769 50.0781V51.6094ZM65.3056 59V57.8594C66.0556 57.6615 66.5869 57.4896 66.8994 57.3438C67.2119 57.1875 67.3681 57.0417 67.3681 56.9062V49.8125C67.3681 48.6667 67.2483 47.8854 67.0088 47.4688C66.7692 47.0521 66.3421 46.8438 65.7275 46.8438C65.2275 46.8438 64.6494 46.9948 63.9931 47.2969C63.3473 47.5885 62.5192 48.1615 61.5088 49.0156V56.9062C61.5088 57.25 62.2015 57.5677 63.5869 57.8594V59H55.6963V57.8594C57.0713 57.4948 57.7588 57.1771 57.7588 56.9062V48.2344C57.7588 47.6927 57.7275 47.2969 57.665 47.0469C57.6025 46.7865 57.4254 46.6042 57.1338 46.5C56.8525 46.3958 56.3733 46.3021 55.6963 46.2188V45.125C56.6858 45.0208 57.5608 44.8802 58.3213 44.7031C59.0921 44.526 59.8577 44.2917 60.6181 44L61.2744 44.6562L61.4463 46.9062C62.6546 45.875 63.79 45.1354 64.8525 44.6875C65.915 44.2292 66.8525 44 67.665 44C68.5608 44 69.3577 44.3021 70.0556 44.9062C70.764 45.5104 71.1181 46.5417 71.1181 48V56.9062C71.1181 57.0417 71.2588 57.1823 71.54 57.3281C71.8213 57.474 72.3733 57.651 73.1963 57.8594V59H65.3056ZM78.6906 39.2969C78.6906 39.9948 78.4406 40.5677 77.9406 41.0156C77.4406 41.4531 76.8156 41.6719 76.0656 41.6719C75.4823 41.6719 74.9771 41.5312 74.55 41.25C74.1333 40.9688 73.925 40.5312 73.925 39.9375C73.925 39.2292 74.175 38.6615 74.675 38.2344C75.1854 37.7969 75.8052 37.5781 76.5344 37.5781C77.0969 37.5781 77.5969 37.7135 78.0344 37.9844C78.4719 38.2552 78.6906 38.6927 78.6906 39.2969ZM72.2844 59V57.8594C72.9823 57.7135 73.4979 57.5521 73.8313 57.375C74.175 57.1979 74.3469 57.0417 74.3469 56.9062V48.875C74.3469 48.1667 74.3156 47.6354 74.2531 47.2812C74.201 46.9271 74.0292 46.6823 73.7375 46.5469C73.4458 46.401 72.9615 46.2917 72.2844 46.2188V45.125C73.1698 45 74.0135 44.849 74.8156 44.6719C75.6281 44.4844 76.3885 44.2604 77.0969 44H78.0969V56.9062C78.0969 57.0312 78.2531 57.1875 78.5656 57.375C78.8781 57.5521 79.4146 57.7135 80.175 57.8594V59H72.2844ZM92.6381 56.0312C91.7319 57.0521 90.9142 57.8073 90.185 58.2969C89.4558 58.7865 88.7683 59.1042 88.1225 59.25C87.4871 59.3958 86.8412 59.4688 86.185 59.4688C85.0496 59.4688 83.9871 59.1771 82.9975 58.5938C82.0183 58 81.2215 57.151 80.6069 56.0469C80.0027 54.9323 79.7006 53.6042 79.7006 52.0625C79.7006 50.5625 80.06 49.2031 80.7787 47.9844C81.4975 46.7656 82.4923 45.7969 83.7631 45.0781C85.034 44.3594 86.4923 44 88.1381 44C88.5965 44 89.1225 44.0521 89.7162 44.1562C90.31 44.2604 90.8673 44.4062 91.3881 44.5938C91.909 44.7708 92.284 44.9844 92.5131 45.2344C92.534 45.3594 92.5027 45.6146 92.4194 46C92.336 46.375 92.2215 46.7917 92.0756 47.25C91.9298 47.7083 91.784 48.1354 91.6381 48.5312C91.4923 48.9167 91.3725 49.1771 91.2787 49.3125L90.2319 49.1562C89.8881 48.1354 89.4662 47.349 88.9662 46.7969C88.4662 46.2344 87.7996 45.9531 86.9662 45.9531C86.3517 45.9531 85.7787 46.1406 85.2475 46.5156C84.7162 46.8906 84.284 47.4948 83.9506 48.3281C83.6173 49.151 83.4506 50.2344 83.4506 51.5781C83.4506 53.2344 83.8465 54.526 84.6381 55.4531C85.4402 56.3802 86.409 56.8438 87.5444 56.8438C87.9402 56.8438 88.3204 56.8073 88.685 56.7344C89.0496 56.6615 89.4715 56.5 89.9506 56.25C90.4402 55.9896 91.0548 55.5833 91.7944 55.0312L92.6381 56.0312ZM106.914 57.25C106.33 57.6562 105.726 58.026 105.101 58.3594C104.476 58.6927 103.909 58.9583 103.398 59.1562C102.888 59.3646 102.502 59.4688 102.242 59.4688C101.815 59.4688 101.461 59.1979 101.179 58.6562C100.909 58.1042 100.773 57.3646 100.773 56.4375V48.2656C100.773 47.6198 100.627 47.0833 100.336 46.6562C100.054 46.2292 99.5231 46.0208 98.7419 46.0312C98.2419 46.0312 97.7731 46.2083 97.3356 46.5625C96.8981 46.9167 96.7106 47.4062 96.7731 48.0312C96.7835 48.1354 96.6065 48.2656 96.2419 48.4219C95.8877 48.5677 95.4554 48.7135 94.945 48.8594C94.445 48.9948 93.9762 49.1094 93.5387 49.2031C93.1117 49.2865 92.8356 49.3125 92.7106 49.2812L92.3825 48.4375C92.7158 47.6146 93.294 46.8698 94.1169 46.2031C94.9398 45.526 95.8981 44.9896 96.9919 44.5938C98.0856 44.1979 99.2106 44 100.367 44C101.794 44 102.841 44.3594 103.507 45.0781C104.185 45.7969 104.523 46.6875 104.523 47.75V55.2812C104.523 56.0938 104.731 56.5 105.148 56.5C105.294 56.5 105.461 56.474 105.648 56.4219C105.846 56.3594 106.153 56.2448 106.57 56.0781L106.914 57.25ZM100.929 51.6094C99.6169 51.8177 98.6898 52.026 98.1481 52.2344C97.6169 52.4323 97.2106 52.6719 96.9294 52.9531C96.6585 53.224 96.4398 53.5156 96.2731 53.8281C96.1065 54.1406 96.0231 54.5156 96.0231 54.9531C96.0231 55.6615 96.195 56.1354 96.5387 56.375C96.8929 56.6146 97.2054 56.7344 97.4762 56.7344C97.8825 56.7344 98.3512 56.6198 98.8825 56.3906C99.4242 56.1615 100.106 55.6823 100.929 54.9531L101.054 56.7031C100.075 57.7552 99.1012 58.4792 98.1325 58.875C97.1637 59.2708 96.3252 59.4688 95.6169 59.4688C95.044 59.4688 94.4815 59.3333 93.9294 59.0625C93.3877 58.8021 92.9398 58.4062 92.5856 57.875C92.2315 57.3333 92.0544 56.6615 92.0544 55.8594C92.0544 55.151 92.1846 54.5521 92.445 54.0625C92.7054 53.5625 93.0231 53.1198 93.3981 52.7344C93.7419 52.3906 94.169 52.0677 94.6794 51.7656C95.1898 51.4635 95.9294 51.1719 96.8981 50.8906C97.8669 50.6094 99.2106 50.3385 100.929 50.0781V51.6094ZM105.627 59V57.8594C106.523 57.7031 107.116 57.5469 107.408 57.3906C107.7 57.2344 107.846 57.0729 107.846 56.9062V39.2188C107.846 38.6042 107.794 38.1615 107.689 37.8906C107.585 37.6198 107.387 37.4427 107.096 37.3594C106.804 37.2656 106.366 37.1875 105.783 37.125V36.0312C106.825 35.8854 107.736 35.724 108.518 35.5469C109.299 35.3698 110.101 35.1146 110.924 34.7812L111.596 35.4219V56.9062C111.596 57.0625 111.752 57.224 112.064 57.3906C112.387 57.5573 112.976 57.7135 113.83 57.8594V59H105.627ZM124.402 54.5781C124.402 55.6823 124.168 56.5625 123.699 57.2188C123.241 57.875 122.668 58.3646 121.981 58.6875C121.293 59.0104 120.606 59.2188 119.918 59.3125C119.231 59.4167 118.658 59.4688 118.199 59.4688C117.533 59.4688 116.772 59.375 115.918 59.1875C115.064 59.0104 114.288 58.724 113.59 58.3281C113.527 58.2865 113.475 58.1042 113.434 57.7812C113.402 57.4479 113.387 57.0417 113.387 56.5625C113.397 56.0729 113.423 55.5781 113.465 55.0781C113.517 54.5781 113.595 54.1354 113.699 53.75L114.965 53.9219C115.184 55.0365 115.642 55.9219 116.34 56.5781C117.048 57.224 117.85 57.5469 118.746 57.5469C120.225 57.5469 120.965 56.9635 120.965 55.7969C120.965 54.9948 120.6 54.3385 119.871 53.8281C119.152 53.3073 118.262 52.7708 117.199 52.2188C116.626 51.9167 116.059 51.5781 115.496 51.2031C114.944 50.8281 114.481 50.3958 114.106 49.9062C113.741 49.4167 113.559 48.8385 113.559 48.1719C113.559 47.3073 113.824 46.5677 114.356 45.9531C114.897 45.3281 115.595 44.849 116.449 44.5156C117.304 44.1719 118.199 44 119.137 44C120.033 44 120.918 44.1094 121.793 44.3281C122.679 44.5469 123.361 44.8385 123.84 45.2031C123.902 45.2552 123.913 45.4271 123.871 45.7188C123.84 46.0104 123.772 46.349 123.668 46.7344C123.574 47.1094 123.46 47.474 123.324 47.8281C123.189 48.1719 123.059 48.4271 122.934 48.5938L121.856 48.4688C121.324 46.5833 120.361 45.6406 118.965 45.6406C118.34 45.6406 117.856 45.7865 117.512 46.0781C117.168 46.3698 116.996 46.7292 116.996 47.1562C116.996 47.7812 117.283 48.3021 117.856 48.7188C118.439 49.125 119.345 49.6406 120.574 50.2656C121.179 50.5781 121.772 50.9219 122.356 51.2969C122.949 51.6615 123.439 52.1042 123.824 52.625C124.21 53.1458 124.402 53.7969 124.402 54.5781Z" fill="black"/>
</svg>
