<svg width="24" height="25" viewBox="0 0 24 25" fill="none" xmlns="http://www.w3.org/2000/svg">
<g clip-path="url(#clip0_14_116)">
<path fill-rule="evenodd" clip-rule="evenodd" d="M6.53292 16.9854L3.41757 2.64286H1.07485C0.483113 2.64286 0.00341797 2.16316 0.00341797 1.57143C0.00341797 0.979695 0.483113 0.5 1.07485 0.5H3.58606C4.46748 0.499925 5.28508 1.12523 5.47392 2.01457L5.87006 3.83833H22.0746C23.1707 3.84224 24.2126 4.81201 23.9672 6.09577L22.5608 12.7759C22.3154 13.9407 21.1938 14.2953 20.6634 14.3271H8.14831L8.58928 16.3572H18.8606C19.4522 16.3572 19.9321 16.8369 19.9321 17.4286C19.9321 18.0203 19.4522 18.5 18.8606 18.5H8.42078C7.53936 18.5 6.72177 17.8748 6.53292 16.9854ZM7.68286 12.1842H20.4956L21.7864 5.98119H6.3355L7.68286 12.1842ZM18.0035 20.6429C19.0686 20.6429 19.9321 21.5063 19.9321 22.5714C19.9321 23.6365 19.0686 24.5 18.0035 24.5C16.9383 24.5 16.0748 23.6365 16.0748 22.5714C16.0748 21.5063 16.9383 20.6429 18.0035 20.6429ZM11.3606 22.5714C11.3606 21.5063 10.4971 20.6429 9.43198 20.6429C8.36686 20.6429 7.50341 21.5063 7.50341 22.5714C7.50341 23.6365 8.36686 24.5 9.43198 24.5C10.4971 24.5 11.3606 23.6365 11.3606 22.5714Z" fill="black"/>
</g>
<defs>
<clipPath id="clip0_14_116">
<rect width="24" height="24" fill="white" transform="translate(0 0.5)"/>
</clipPath>
</defs>
</svg>
